<?xml version="1.0" encoding="UTF-8" standalone="no"?>
<svg
   xmlns:dc="http://purl.org/dc/elements/1.1/"
   xmlns:cc="http://creativecommons.org/ns#"
   xmlns:rdf="http://www.w3.org/1999/02/22-rdf-syntax-ns#"
   xmlns:svg="http://www.w3.org/2000/svg"
   xmlns="http://www.w3.org/2000/svg"
   id="svg12"
   version="1.1"
   width="50"
   height="50"
   viewBox="0 0 66.146 13.229">
  <metadata
     id="metadata18">
    <rdf:RDF>
      <cc:Work
         rdf:about="">
        <dc:format>image/svg+xml</dc:format>
        <dc:type
           rdf:resource="http://purl.org/dc/dcmitype/StillImage" />
        <dc:title></dc:title>
      </cc:Work>
    </rdf:RDF>
  </metadata>
  <defs
     id="defs16" />
  <path
     style="stroke-width:6.25155"
     id="path10"
     fill="#0ff"
     d="M 31.02347,39.580903 C 24.934463,38.830717 18.49537,34.348358 15.769695,28.95328 c -0.818952,-1.612899 -1.612899,-5.620141 -1.281567,-6.476603 0.112528,-0.287571 -0.06251,-0.425105 -0.562639,-0.425105 -0.437608,0 -1.044008,-0.368841 -1.500371,-0.912726 C 11.656177,20.219869 10.030775,16.34391 9.630676,14.455942 9.44313,13.568223 9.486891,13.455695 9.974511,13.543217 c 0.343835,0.06251 1.081518,1.062763 1.862961,2.519373 a 38.134436,38.134436 0 0 0 1.450359,2.563134 c 0.337584,0.343835 0.593897,-0.32508 0.787695,-2.012998 0.193798,-1.73793 0.187546,-1.750433 -0.981493,-2.763184 -1.062763,-0.918977 -1.175291,-1.156536 -1.175291,-2.519373 0,-1.9567342 -0.756437,-2.8069445 -2.388083,-2.6694105 -1.01275,0.08127 -1.206548,0.2500619 -1.8942186,1.6254025 -1.6691624,3.350829 -0.7064242,7.264297 2.6131386,10.615126 1.444108,1.456611 1.625403,1.756685 1.194046,2.000495 C 10.649678,23.339391 8.755467,22.85177 7.5239125,21.870277 6.1298182,20.770005 4.4481521,18.369411 3.8229974,16.58772 2.8415046,13.774524 3.4228984,8.8733111 5.1108161,5.7725439 6.6236904,2.996857 8.505405,2.4404694 11.568656,3.8658221 c 0.900223,0.4188536 1.73793,0.7626887 1.869212,0.7626887 0.125031,0 0.325081,-0.9314805 0.437609,-2.0630105 0.112527,-1.1377815 0.48762,-3.10076724 0.831455,-4.3573282 1.037757,-3.8321982 1.025254,-3.669658 0.312578,-3.669658 -1.031506,0 -3.094516,-0.937732 -3.425848,-1.5628867 -0.28132,-0.5251299 -0.187546,-0.5751423 1.025254,-0.5751423 0.737682,0 1.425352,-0.087522 1.531629,-0.2000495 0.112527,-0.1062763 -0.206301,-0.6626702 -0.706425,-1.231561 -1.606648,-1.8254516 -2.244305,-3.4133446 -2.269312,-5.6639016 -0.03126,-2.731926 0.250062,-2.956982 2.313073,-1.887967 0.900222,0.468866 2.169286,1.100272 2.813196,1.400347 l 1.181542,0.550136 -0.993996,-1.13153 c -1.325328,-1.512875 -2.713171,-4.544875 -2.938227,-6.420339 -0.206301,-1.781691 0.793947,-4.594887 1.49412,-4.188536 0.212552,0.125031 1.144033,0.737682 2.069262,1.356585 4.176033,2.800693 6.501609,3.59464 11.621625,3.957229 4.72617,0.337584 7.776925,1.25031 11.327803,3.375836 3.575885,2.14428 3.750929,2.356833 3.894714,4.68866 l 0.125031,1.956734 1.57539,0.187546 c 2.531876,0.293823 4.738675,1.0627635 5.238799,1.8317037 0.481369,0.731431 1.500371,6.8517016 1.85671,11.1277597 0.112528,1.3815918 0.32508,2.5193734 0.468866,2.5193734 0.137534,0 0.843959,-0.3125774 1.562886,-0.6876702 a 6.207786,6.207786 0 0 1 3.094516,-0.6876701 c 1.612899,0 1.862961,0.087522 2.550631,0.9127258 2.850706,3.4383508 3.725922,9.8149287 1.869213,13.6096177 -0.825204,1.675414 -2.681914,3.857204 -4.044751,4.751175 -0.756437,0.500124 -3.044503,0.731431 -3.425848,0.350087 -0.118779,-0.118779 0.562639,-0.987751 1.512875,-1.931734 3.350829,-3.319572 4.338573,-7.295555 2.656907,-10.665139 -0.68767,-1.3753342 -0.875217,-1.5378744 -1.894219,-1.625396 -1.625402,-0.125031 -2.388091,0.7189278 -2.388091,2.675656 0,1.362837 -0.106276,1.594144 -1.17529,2.519373 -1.16904,1.012751 -1.175291,1.025254 -0.975242,2.763184 0.187547,1.687918 0.450112,2.356833 0.781444,2.01925 0.08752,-0.08752 0.743934,-1.25031 1.45661,-2.569386 0.775192,-1.456611 1.512874,-2.450607 1.856709,-2.519374 0.487621,-0.09377 0.537633,0.02501 0.343836,0.912726 -0.400099,1.887967 -2.01925,5.763926 -2.794442,6.689155 -0.425105,0.500124 -1.019002,0.906475 -1.331579,0.906475 -0.462615,0 -0.593897,0.343835 -0.756438,2.063016 a 21.505321,21.505321 0 0 1 -0.52513,3.132025 c -0.875216,2.95073 -4.688663,7.439335 -8.001983,9.43983 -3.950977,2.375588 -8.40833,3.400841 -12.565609,2.894466 z m 5.932718,-3.019497 c 3.988487,-0.937732 8.364569,-3.957223 10.458838,-7.22053 0.943983,-1.481617 1.019002,-1.769188 0.975241,-3.907217 a 15.572603,15.572603 0 0 0 -0.600149,-3.963481 l -0.562639,-1.65666 -4.025996,-0.02501 c -3.657155,-0.02501 -3.988487,0.01875 -3.59464,0.456363 0.575143,0.637658 0.556388,1.394095 -0.04376,1.625402 -0.268817,0.100025 -1.16904,0.187546 -2.000495,0.187546 -0.837708,0 -1.931728,0.206301 -2.425601,0.462615 -0.500123,0.256313 -0.900222,0.343835 -0.900222,0.187546 0,-0.437608 1.912973,-2.013004 3.000742,-2.463115 1.175291,-0.487621 1.231555,-0.812701 0.193798,-1.062763 -0.918977,-0.237559 -1.250309,-0.993996 -1.775439,-4.126021 l -0.393848,-2.325576 h -3.888462 l -0.393847,2.319324 c -0.700173,4.144776 -0.818953,4.251052 -5.220042,4.732421 l -1.894219,0.212553 -1.2128,1.875464 c -3.088264,4.788691 -2.894466,6.876708 1.000248,10.733912 3.907217,3.857198 8.252042,5.151268 13.303292,3.963474 z m -7.15177,-4.726163 a 8.6271347,8.6271347 0 0 1 2.288066,-0.293823 c 2.144281,-0.04376 6.10151,-0.743934 7.23304,-1.281567 0.550136,-0.262565 1.237806,-1.094021 1.856709,-2.250557 1.081518,-2.006746 1.25031,-2.900718 0.543885,-2.900718 -0.250062,0 -0.456363,-0.125031 -0.456363,-0.281319 0,-0.425105 3.006994,-0.975242 4.16353,-0.756437 1.325328,0.250061 1.325328,0.956486 0.0063,1.200297 -0.812701,0.156288 -1.144033,0.456362 -1.644157,1.469113 -0.950235,1.931728 -2.419349,3.800941 -3.363332,4.288561 a 13.690888,13.690888 0 0 1 -3.044504,0.775192 c -2.613146,0.400099 -8.502103,0.425105 -7.583126,0.03126 z m 2.288066,-9.321057 c -0.418853,-0.24381 -1.525377,-0.443859 -2.456858,-0.450111 -2.000495,-0.0125 -2.531876,-0.375093 -2.056759,-1.419101 0.450112,-0.987745 1.244058,-1.169039 2.438104,-0.550136 1.394095,0.718928 2.906969,1.90047 3.11327,2.438103 0.212553,0.543885 -0.05001,0.537633 -1.037757,-0.01876 z m -5.126268,-4.144775 c 1.419101,-0.393848 1.70042,-0.906475 2.138029,-3.888462 0.612651,-4.226046 0.212552,-4.5823842 -5.41384,-4.8699554 -4.076008,-0.206301 -6.732916,0.2313073 -6.976726,1.1565364 -0.256314,0.981493 0.350086,4.482359 1.000247,5.751423 0.500124,0.981493 0.843959,1.244058 2.213048,1.644157 1.894219,0.562639 5.407588,0.662664 7.045493,0.206301 z m 19.567341,-0.187547 c 1.581642,-0.437608 1.875464,-0.643909 2.406846,-1.687917 0.612652,-1.206549 1.212803,-4.832446 0.962741,-5.807687 C 49.68434,9.8610555 46.839883,9.4171957 42.94517,9.6047421 c -5.607638,0.275068 -6.026492,0.6501609 -5.407589,4.8762069 0.425106,2.919472 0.72518,3.500866 1.975489,3.869707 1.594145,0.462615 5.088759,0.375093 7.026739,-0.16254 z M 35.487074,8.4044451 C 35.787148,7.591744 36.687371,7.4604615 43.79538,7.1978965 L 49.528051,6.9853439 V 5.122383 c 0,-2.4130971 -0.668918,-3.5008663 -3.088267,-5.07000453 C 42.838893,-2.273197 38.94418,-3.2546898 37.093722,-2.2982032 c -0.900223,0.4688661 -2.763184,2.33807857 -3.425848,3.4508539 -0.337584,0.5626392 -0.350087,0.5626392 -0.68767,0 C 32.31754,0.03987537 30.46083,-1.8293371 29.554356,-2.2982032 27.703898,-3.2546898 23.809185,-2.273197 20.208294,0.05237847 17.707675,1.6715291 17.08252,2.7155374 17.195048,5.1536407 l 0.08127,1.8942187 5.788932,0.1750433 c 6.201535,0.1812949 7.964471,0.4626145 8.189527,1.3128249 0.112528,0.4376082 0.481369,0.5251299 2.069262,0.5126268 1.65666,-0.018755 1.962986,-0.1125278 2.163035,-0.6501609 z" />
</svg>
