<svg xmlns="http://www.w3.org/2000/svg"
  viewBox="0 0 66.146 13.229"
  height="50"
  width="250">
  <path d="M6.002 11.705c-.974-.12-2.004-.837-2.44-1.7-.131-.258-.258-.899-.205-1.036.018-.046-.01-.068-.09-.068-.07 0-.167-.059-.24-.146-.123-.147-.383-.767-.447-1.069-.03-.142-.023-.16.055-.146.055.01.173.17.298.403a6.1 6.1 0 00.232.41c.054.055.095-.052.126-.322.031-.278.03-.28-.157-.442-.17-.147-.188-.185-.188-.403 0-.313-.121-.449-.382-.427-.162.013-.193.04-.303.26-.267.536-.113 1.162.418 1.698.231.233.26.281.191.32-.127.07-.43-.008-.627-.165-.223-.176-.492-.56-.592-.845-.157-.45-.064-1.234.206-1.73.242-.444.543-.533 1.033-.305.144.067.278.122.299.122.02 0 .052-.149.07-.33.018-.182.078-.496.133-.697.166-.613.164-.587.05-.587-.165 0-.495-.15-.548-.25-.045-.084-.03-.092.164-.092.118 0 .228-.014.245-.032.018-.017-.033-.106-.113-.197-.257-.292-.359-.546-.363-.906-.005-.437.04-.473.37-.302.144.075.347.176.45.224l.189.088-.159-.181c-.212-.242-.434-.727-.47-1.027-.033-.285.127-.735.239-.67.034.02.183.118.331.217.668.448 1.04.575 1.859.633.756.054 1.244.2 1.812.54.572.343.6.377.623.75l.02.313.252.03c.405.047.758.17.838.293.077.117.24 1.096.297 1.78.018.221.052.403.075.403.022 0 .135-.05.25-.11a.993.993 0 01.495-.11c.258 0 .298.014.408.146.456.55.596 1.57.299 2.177-.132.268-.429.617-.647.76-.121.08-.487.117-.548.056-.019-.019.09-.158.242-.309.536-.531.694-1.167.425-1.706-.11-.22-.14-.246-.303-.26-.26-.02-.382.115-.382.428 0 .218-.017.255-.188.403-.187.162-.188.164-.156.442.03.27.072.377.125.323.014-.014.119-.2.233-.411.124-.233.242-.392.297-.403.078-.015.086.004.055.146-.064.302-.323.922-.447 1.07-.068.08-.163.145-.213.145-.074 0-.095.055-.121.33a3.44 3.44 0 01-.084.501c-.14.472-.75 1.19-1.28 1.51-.632.38-1.345.544-2.01.463zm.949-.483c.638-.15 1.338-.633 1.673-1.155.151-.237.163-.283.156-.625a2.491 2.491 0 00-.096-.634l-.09-.265-.644-.004c-.585-.004-.638.003-.575.073.092.102.089.223-.007.26-.043.016-.187.03-.32.03-.134 0-.309.033-.388.074-.08.041-.144.055-.144.03 0-.07.306-.322.48-.394.188-.078.197-.13.031-.17-.147-.038-.2-.159-.284-.66L6.68 7.41h-.622l-.063.371c-.112.663-.131.68-.835.757l-.303.034-.194.3c-.494.766-.463 1.1.16 1.717.625.617 1.32.824 2.128.634zm-1.144-.756a1.38 1.38 0 01.366-.047c.343-.007.976-.119 1.157-.205.088-.042.198-.175.297-.36.173-.321.2-.464.087-.464-.04 0-.073-.02-.073-.045 0-.068.481-.156.666-.121.212.04.212.153.001.192-.13.025-.183.073-.263.235-.152.309-.387.608-.538.686a2.19 2.19 0 01-.487.124c-.418.064-1.36.068-1.213.005zm.366-1.491c-.067-.039-.244-.071-.393-.072-.32-.002-.405-.06-.329-.227.072-.158.199-.187.39-.088.223.115.465.304.498.39.034.087-.008.086-.166-.003zm-.82-.663c.227-.063.272-.145.342-.622.098-.676.034-.733-.866-.779-.652-.033-1.077.037-1.116.185-.041.157.056.717.16.92.08.157.135.199.354.263.303.09.865.106 1.127.033zm3.13-.03c.253-.07.3-.103.385-.27.098-.193.194-.773.154-.929-.035-.132-.49-.203-1.113-.173-.897.044-.964.104-.865.78.068.467.116.56.316.619.255.074.814.06 1.124-.026zM6.716 6.718c.048-.13.192-.151 1.329-.193l.917-.034v-.298c0-.386-.107-.56-.494-.811-.576-.372-1.199-.529-1.495-.376-.144.075-.442.374-.548.552-.054.09-.056.09-.11 0-.106-.178-.403-.477-.548-.552-.296-.153-.919.004-1.495.376-.4.259-.5.426-.482.816l.013.303.926.028c.992.029 1.274.074 1.31.21.018.07.077.084.331.082.265-.003.314-.018.346-.104z" fill="#0ff"/>
  <text transform="matrix(1.04335 0 0 .95845 -19.81 -144.5)" y="160.478" x="31.224" style="line-height:1.25" font-weight="400" font-size="10.814" font-family="sans-serif" letter-spacing="0" word-spacing="0" fill="#fff" stroke-width=".27"><tspan y="160.478" x="31.224" style="-inkscape-font-specification:'Liberation Sans Narrow Bold'" font-weight="700" font-family="Liberation Sans Narrow">jason<tspan style="-inkscape-font-specification:'Liberation Sans Narrow Condensed'" font-weight="400" font-stretch="condensed">kumpf</tspan></tspan></text>
</svg>
